<mxfile host="65bd71144e">
    <diagram id="cLREo60pOgPKevjp7n1b" name="Page-1">
        <mxGraphModel dx="1006" dy="613" grid="1" gridSize="10" guides="1" tooltips="1" connect="1" arrows="1" fold="1" page="1" pageScale="1" pageWidth="827" pageHeight="1169" math="0" shadow="0">
            <root>
                <mxCell id="0"/>
                <mxCell id="1" parent="0"/>
                <mxCell id="2" value="" style="pointerEvents=1;verticalLabelPosition=bottom;shadow=0;dashed=0;align=center;html=1;verticalAlign=top;shape=mxgraph.electrical.miscellaneous.batteryStack;direction=north;" vertex="1" parent="1">
                    <mxGeometry x="651" y="335" width="60" height="100" as="geometry"/>
                </mxCell>
                <mxCell id="4" value="" style="verticalLabelPosition=bottom;shadow=0;dashed=0;align=center;html=1;verticalAlign=top;shape=mxgraph.electrical.opto_electronics.led_2;pointerEvents=1;rotation=0;" vertex="1" parent="1">
                    <mxGeometry x="245" y="575" width="100" height="70" as="geometry"/>
                </mxCell>
                <mxCell id="5" style="edgeStyle=orthogonalEdgeStyle;shape=connector;curved=0;rounded=0;html=1;exitX=1;exitY=0.12;exitDx=0;exitDy=0;strokeColor=default;align=center;verticalAlign=middle;fontFamily=Helvetica;fontSize=11;fontColor=default;labelBackgroundColor=default;endArrow=none;endFill=0;" edge="1" parent="1" source="6">
                    <mxGeometry relative="1" as="geometry">
                        <mxPoint x="651" y="180.75" as="targetPoint"/>
                    </mxGeometry>
                </mxCell>
                <mxCell id="6" value="" style="html=1;shape=mxgraph.electrical.electro-mechanical.twoWaySwitch;aspect=fixed;elSwitchState=2;fontFamily=Helvetica;fontSize=11;fontColor=default;labelBackgroundColor=default;flipV=1;" vertex="1" parent="1">
                    <mxGeometry x="491" y="175.75" width="111.06" height="38.5" as="geometry"/>
                </mxCell>
                <mxCell id="7" value="" style="shape=waypoint;sketch=0;size=6;pointerEvents=1;points=[];fillColor=none;resizable=0;rotatable=0;perimeter=centerPerimeter;snapToPoint=1;fontFamily=Helvetica;fontSize=11;fontColor=default;labelBackgroundColor=default;strokeWidth=5;" vertex="1" parent="1">
                    <mxGeometry x="491" y="605" width="20" height="20" as="geometry"/>
                </mxCell>
                <mxCell id="8" value="&lt;font style=&quot;font-size: 17px;&quot;&gt;220&amp;nbsp;&lt;span style=&quot;color: rgb(52, 73, 94); font-family: ArtifaktElement-Medium, sans-serif; text-align: left; text-wrap-mode: wrap; background-color: rgb(244, 245, 246);&quot;&gt;Î©&lt;/span&gt;&lt;/font&gt;" style="text;html=1;align=center;verticalAlign=middle;resizable=0;points=[];autosize=1;strokeColor=none;fillColor=none;fontFamily=Helvetica;fontSize=11;fontColor=default;labelBackgroundColor=default;" vertex="1" parent="1">
                    <mxGeometry x="360" y="575" width="70" height="30" as="geometry"/>
                </mxCell>
                <mxCell id="9" value="&lt;font style=&quot;font-size: 15px;&quot;&gt;Input A&lt;/font&gt;" style="text;html=1;align=center;verticalAlign=middle;resizable=0;points=[];autosize=1;strokeColor=none;fillColor=none;fontFamily=Helvetica;fontSize=11;fontColor=default;labelBackgroundColor=default;" vertex="1" parent="1">
                    <mxGeometry x="486" y="205" width="70" height="30" as="geometry"/>
                </mxCell>
                <mxCell id="10" value="&lt;font style=&quot;font-size: 14px;&quot;&gt;5V&lt;/font&gt;" style="text;html=1;align=center;verticalAlign=middle;resizable=0;points=[];autosize=1;strokeColor=none;fillColor=none;fontFamily=Helvetica;fontSize=11;fontColor=default;labelBackgroundColor=default;" vertex="1" parent="1">
                    <mxGeometry x="724" y="355" width="40" height="30" as="geometry"/>
                </mxCell>
                <mxCell id="11" value="Clara Tyman&#xa;May 2025&#xa;TEJ3M&#xa;Unit 4-15" style="text;align=left;verticalAlign=middle;resizable=0;points=[];autosize=1;strokeColor=none;fillColor=none;fontFamily=Helvetica;fontSize=14;fontColor=default;labelBackgroundColor=default;flipH=1;flipV=1;rotation=0;" vertex="1" parent="1">
                    <mxGeometry x="20" y="20" width="100" height="80" as="geometry"/>
                </mxCell>
                <mxCell id="12" value="" style="pointerEvents=1;verticalLabelPosition=bottom;shadow=0;dashed=0;align=center;html=1;verticalAlign=top;shape=mxgraph.electrical.resistors.resistor_2;" vertex="1" parent="1">
                    <mxGeometry x="345" y="605" width="100" height="20" as="geometry"/>
                </mxCell>
                <mxCell id="13" value="Output" style="text;html=1;align=center;verticalAlign=middle;resizable=0;points=[];autosize=1;strokeColor=none;fillColor=none;fontFamily=Helvetica;fontSize=15;fontColor=default;labelBackgroundColor=default;" vertex="1" parent="1">
                    <mxGeometry x="265" y="545" width="70" height="30" as="geometry"/>
                </mxCell>
                <mxCell id="15" value="" style="shape=waypoint;sketch=0;size=6;pointerEvents=1;points=[];fillColor=none;resizable=0;rotatable=0;perimeter=centerPerimeter;snapToPoint=1;fontFamily=Helvetica;fontSize=12;fontColor=default;labelBackgroundColor=default;strokeWidth=6;" vertex="1" parent="1">
                    <mxGeometry x="641" y="171.75" width="20" height="20" as="geometry"/>
                </mxCell>
                <mxCell id="16" value="&lt;div&gt;&lt;span style=&quot;background-color: transparent; color: rgb(63, 63, 63);&quot;&gt;XOR gate with Chips&lt;/span&gt;&lt;/div&gt;&lt;div&gt;&lt;br&gt;&lt;/div&gt;&lt;div&gt;&amp;nbsp; &amp;nbsp; &amp;nbsp; &amp;nbsp; &amp;nbsp; &amp;nbsp; &amp;nbsp; &amp;nbsp; &amp;nbsp; A | B | Output&lt;/div&gt;&lt;div&gt;&amp;nbsp; &amp;nbsp; &amp;nbsp; &amp;nbsp; &amp;nbsp; &amp;nbsp; &amp;nbsp; ------------------------&lt;/div&gt;&lt;div&gt;&amp;nbsp; &amp;nbsp; &amp;nbsp; &amp;nbsp; &amp;nbsp;0 | 0 | 0&lt;/div&gt;&lt;div&gt;&amp;nbsp; &amp;nbsp; &amp;nbsp; &amp;nbsp; &amp;nbsp;0 | 1 | 1&lt;/div&gt;&lt;div&gt;&amp;nbsp; &amp;nbsp; &amp;nbsp; &amp;nbsp; &amp;nbsp;1 | 0 | 1&lt;/div&gt;&lt;div&gt;&amp;nbsp; &amp;nbsp; &amp;nbsp; &amp;nbsp; &amp;nbsp;1 | 1 | 0&lt;/div&gt;" style="text;html=1;align=center;verticalAlign=middle;resizable=0;points=[];autosize=1;strokeColor=none;fillColor=none;strokeWidth=7;fontSize=14;" vertex="1" parent="1">
                    <mxGeometry x="120" y="10" width="190" height="150" as="geometry"/>
                </mxCell>
                <mxCell id="17" value="" style="shape=waypoint;sketch=0;size=6;pointerEvents=1;points=[];fillColor=none;resizable=0;rotatable=0;perimeter=centerPerimeter;snapToPoint=1;fontFamily=Helvetica;fontSize=12;fontColor=default;labelBackgroundColor=default;strokeWidth=6;" vertex="1" parent="1">
                    <mxGeometry x="509" y="185" width="20" height="20" as="geometry"/>
                </mxCell>
                <mxCell id="18" value="" style="shape=waypoint;sketch=0;size=6;pointerEvents=1;points=[];fillColor=none;resizable=0;rotatable=0;perimeter=centerPerimeter;snapToPoint=1;fontFamily=Helvetica;fontSize=12;fontColor=default;labelBackgroundColor=default;strokeWidth=6;" vertex="1" parent="1">
                    <mxGeometry x="565" y="200" width="20" height="20" as="geometry"/>
                </mxCell>
                <mxCell id="19" value="" style="shape=waypoint;sketch=0;size=6;pointerEvents=1;points=[];fillColor=none;resizable=0;rotatable=0;perimeter=centerPerimeter;snapToPoint=1;fontFamily=Helvetica;fontSize=12;fontColor=default;labelBackgroundColor=default;strokeWidth=6;" vertex="1" parent="1">
                    <mxGeometry x="567" y="170" width="20" height="20" as="geometry"/>
                </mxCell>
                <mxCell id="20" style="edgeStyle=orthogonalEdgeStyle;shape=connector;curved=0;rounded=0;html=1;exitX=1;exitY=0.5;exitDx=0;exitDy=0;entryX=0.492;entryY=1.062;entryDx=0;entryDy=0;entryPerimeter=0;strokeColor=default;align=center;verticalAlign=middle;fontFamily=Helvetica;fontSize=11;fontColor=default;labelBackgroundColor=default;endArrow=none;endFill=0;" edge="1" parent="1" source="2" target="15">
                    <mxGeometry relative="1" as="geometry"/>
                </mxCell>
                <mxCell id="21" style="edgeStyle=orthogonalEdgeStyle;shape=connector;curved=0;rounded=0;html=1;exitDx=0;exitDy=0;entryX=0.521;entryY=0.231;entryDx=0;entryDy=0;entryPerimeter=0;strokeColor=default;align=center;verticalAlign=middle;fontFamily=Helvetica;fontSize=11;fontColor=default;labelBackgroundColor=default;endArrow=none;endFill=0;" edge="1" parent="1" source="31" target="7">
                    <mxGeometry relative="1" as="geometry">
                        <Array as="points">
                            <mxPoint x="501" y="454"/>
                        </Array>
                    </mxGeometry>
                </mxCell>
                <mxCell id="22" style="edgeStyle=orthogonalEdgeStyle;shape=connector;curved=0;rounded=0;html=1;exitX=1;exitY=0.12;exitDx=0;exitDy=0;strokeColor=default;align=center;verticalAlign=middle;fontFamily=Helvetica;fontSize=11;fontColor=default;labelBackgroundColor=default;endArrow=none;endFill=0;" edge="1" parent="1" source="24">
                    <mxGeometry relative="1" as="geometry">
                        <mxPoint x="651" y="260.75" as="targetPoint"/>
                    </mxGeometry>
                </mxCell>
                <mxCell id="23" style="edgeStyle=orthogonalEdgeStyle;shape=connector;curved=0;rounded=0;html=1;exitX=1;exitY=0.88;exitDx=0;exitDy=0;strokeColor=default;align=center;verticalAlign=middle;fontFamily=Helvetica;fontSize=11;fontColor=default;labelBackgroundColor=default;endArrow=none;endFill=0;" edge="1" parent="1">
                    <mxGeometry relative="1" as="geometry">
                        <mxPoint x="503" y="450" as="targetPoint"/>
                        <mxPoint x="601.06" y="289.63" as="sourcePoint"/>
                        <Array as="points">
                            <mxPoint x="601" y="340"/>
                            <mxPoint x="504" y="340"/>
                        </Array>
                    </mxGeometry>
                </mxCell>
                <mxCell id="24" value="" style="html=1;shape=mxgraph.electrical.electro-mechanical.twoWaySwitch;aspect=fixed;elSwitchState=2;fontFamily=Helvetica;fontSize=11;fontColor=default;labelBackgroundColor=default;flipV=1;" vertex="1" parent="1">
                    <mxGeometry x="491" y="255.75" width="111.06" height="38.5" as="geometry"/>
                </mxCell>
                <mxCell id="25" value="&lt;font style=&quot;font-size: 15px;&quot;&gt;Input B&lt;/font&gt;" style="text;html=1;align=center;verticalAlign=middle;resizable=0;points=[];autosize=1;strokeColor=none;fillColor=none;fontFamily=Helvetica;fontSize=11;fontColor=default;labelBackgroundColor=default;" vertex="1" parent="1">
                    <mxGeometry x="486" y="285" width="70" height="30" as="geometry"/>
                </mxCell>
                <mxCell id="26" value="" style="shape=waypoint;sketch=0;size=6;pointerEvents=1;points=[];fillColor=none;resizable=0;rotatable=0;perimeter=centerPerimeter;snapToPoint=1;fontFamily=Helvetica;fontSize=12;fontColor=default;labelBackgroundColor=default;strokeWidth=6;" vertex="1" parent="1">
                    <mxGeometry x="641" y="251.75" width="20" height="20" as="geometry"/>
                </mxCell>
                <mxCell id="27" value="" style="shape=waypoint;sketch=0;size=6;pointerEvents=1;points=[];fillColor=none;resizable=0;rotatable=0;perimeter=centerPerimeter;snapToPoint=1;fontFamily=Helvetica;fontSize=12;fontColor=default;labelBackgroundColor=default;strokeWidth=6;" vertex="1" parent="1">
                    <mxGeometry x="509" y="265" width="20" height="20" as="geometry"/>
                </mxCell>
                <mxCell id="28" value="" style="shape=waypoint;sketch=0;size=6;pointerEvents=1;points=[];fillColor=none;resizable=0;rotatable=0;perimeter=centerPerimeter;snapToPoint=1;fontFamily=Helvetica;fontSize=12;fontColor=default;labelBackgroundColor=default;strokeWidth=6;" vertex="1" parent="1">
                    <mxGeometry x="565" y="280" width="20" height="20" as="geometry"/>
                </mxCell>
                <mxCell id="29" value="" style="shape=waypoint;sketch=0;size=6;pointerEvents=1;points=[];fillColor=none;resizable=0;rotatable=0;perimeter=centerPerimeter;snapToPoint=1;fontFamily=Helvetica;fontSize=12;fontColor=default;labelBackgroundColor=default;strokeWidth=6;" vertex="1" parent="1">
                    <mxGeometry x="567" y="250" width="20" height="20" as="geometry"/>
                </mxCell>
                <mxCell id="30" value="" style="edgeStyle=orthogonalEdgeStyle;shape=connector;curved=0;rounded=0;html=1;exitX=1;exitY=0.88;exitDx=0;exitDy=0;entryDx=0;entryDy=0;entryPerimeter=0;strokeColor=default;align=center;verticalAlign=middle;fontFamily=Helvetica;fontSize=11;fontColor=default;labelBackgroundColor=default;endArrow=none;endFill=0;" edge="1" parent="1" source="6" target="31">
                    <mxGeometry relative="1" as="geometry">
                        <Array as="points">
                            <mxPoint x="624" y="210"/>
                            <mxPoint x="624" y="454"/>
                        </Array>
                        <mxPoint x="602" y="210" as="sourcePoint"/>
                        <mxPoint x="501" y="615" as="targetPoint"/>
                    </mxGeometry>
                </mxCell>
                <mxCell id="31" value="" style="shape=waypoint;sketch=0;size=6;pointerEvents=1;points=[];fillColor=none;resizable=0;rotatable=0;perimeter=centerPerimeter;snapToPoint=1;fontFamily=Helvetica;fontSize=12;fontColor=default;labelBackgroundColor=default;strokeWidth=6;" vertex="1" parent="1">
                    <mxGeometry x="491" y="444" width="20" height="20" as="geometry"/>
                </mxCell>
                <mxCell id="32" style="edgeStyle=orthogonalEdgeStyle;shape=connector;curved=0;rounded=0;html=1;exitX=0;exitY=0.5;exitDx=0;exitDy=0;entryX=1;entryY=0.5;entryDx=0;entryDy=0;entryPerimeter=0;strokeColor=default;align=center;verticalAlign=middle;fontFamily=Helvetica;fontSize=11;fontColor=default;labelBackgroundColor=default;endArrow=none;endFill=0;" edge="1" parent="1" source="2" target="12">
                    <mxGeometry relative="1" as="geometry"/>
                </mxCell>
                <mxCell id="36" value="+" style="text;html=1;align=center;verticalAlign=middle;resizable=0;points=[];autosize=1;strokeColor=none;fillColor=none;fontFamily=Helvetica;fontSize=11;fontColor=default;labelBackgroundColor=default;" vertex="1" parent="1">
                    <mxGeometry x="705" y="328" width="30" height="30" as="geometry"/>
                </mxCell>
                <mxCell id="37" value="-" style="text;html=1;align=center;verticalAlign=middle;resizable=0;points=[];autosize=1;strokeColor=none;fillColor=none;fontFamily=Helvetica;fontSize=11;fontColor=default;labelBackgroundColor=default;" vertex="1" parent="1">
                    <mxGeometry x="704" y="408" width="30" height="30" as="geometry"/>
                </mxCell>
                <mxCell id="48" style="edgeStyle=orthogonalEdgeStyle;shape=connector;curved=0;rounded=0;html=1;exitX=0;exitY=0.25;exitDx=0;exitDy=0;exitPerimeter=0;strokeColor=default;align=center;verticalAlign=middle;fontFamily=Helvetica;fontSize=11;fontColor=default;labelBackgroundColor=default;endArrow=none;endFill=0;" edge="1" parent="1" source="40">
                    <mxGeometry relative="1" as="geometry">
                        <mxPoint x="170" y="450" as="targetPoint"/>
                    </mxGeometry>
                </mxCell>
                <mxCell id="49" style="edgeStyle=orthogonalEdgeStyle;shape=connector;curved=0;rounded=0;html=1;exitX=0;exitY=0.75;exitDx=0;exitDy=0;exitPerimeter=0;strokeColor=default;align=center;verticalAlign=middle;fontFamily=Helvetica;fontSize=11;fontColor=default;labelBackgroundColor=default;endArrow=none;endFill=0;" edge="1" parent="1" source="40" target="50">
                    <mxGeometry relative="1" as="geometry">
                        <mxPoint x="70" y="430" as="targetPoint"/>
                    </mxGeometry>
                </mxCell>
                <mxCell id="40" value="" style="verticalLabelPosition=bottom;shadow=0;dashed=0;align=center;html=1;verticalAlign=top;shape=mxgraph.electrical.logic_gates.logic_gate;operation=or;rotation=0;" vertex="1" parent="1">
                    <mxGeometry x="145" y="585" width="100" height="60" as="geometry"/>
                </mxCell>
                <mxCell id="47" style="edgeStyle=orthogonalEdgeStyle;shape=connector;curved=0;rounded=0;html=1;exitDx=0;exitDy=0;entryX=0;entryY=0.5;entryDx=0;entryDy=0;strokeColor=default;align=center;verticalAlign=middle;fontFamily=Helvetica;fontSize=11;fontColor=default;labelBackgroundColor=default;endArrow=none;endFill=0;" edge="1" parent="1" source="61" target="6">
                    <mxGeometry relative="1" as="geometry"/>
                </mxCell>
                <mxCell id="43" value="" style="verticalLabelPosition=bottom;shadow=0;dashed=0;align=center;html=1;verticalAlign=top;shape=mxgraph.electrical.logic_gates.buffer2;rotation=-180;" vertex="1" parent="1">
                    <mxGeometry x="314" y="165" width="100" height="60" as="geometry"/>
                </mxCell>
                <mxCell id="44" value="" style="ellipse;whiteSpace=wrap;html=1;fontFamily=Helvetica;fontSize=11;fontColor=default;labelBackgroundColor=default;" vertex="1" parent="1">
                    <mxGeometry x="325" y="189.75" width="10" height="10" as="geometry"/>
                </mxCell>
                <mxCell id="60" style="edgeStyle=orthogonalEdgeStyle;shape=connector;curved=0;rounded=0;html=1;exitX=0;exitY=0.25;exitDx=0;exitDy=0;exitPerimeter=0;strokeColor=default;align=center;verticalAlign=middle;fontFamily=Helvetica;fontSize=11;fontColor=default;labelBackgroundColor=default;endArrow=none;endFill=0;" edge="1" parent="1" source="50">
                    <mxGeometry relative="1" as="geometry">
                        <mxPoint x="460" y="280" as="targetPoint"/>
                    </mxGeometry>
                </mxCell>
                <mxCell id="50" value="" style="verticalLabelPosition=bottom;shadow=0;dashed=0;align=center;html=1;verticalAlign=top;shape=mxgraph.electrical.logic_gates.logic_gate;operation=and;fontFamily=Helvetica;fontSize=11;fontColor=default;labelBackgroundColor=default;rotation=90;" vertex="1" parent="1">
                    <mxGeometry x="10" y="375" width="100" height="60" as="geometry"/>
                </mxCell>
                <mxCell id="54" style="edgeStyle=orthogonalEdgeStyle;shape=connector;curved=0;rounded=0;html=1;exitX=0;exitY=0.75;exitDx=0;exitDy=0;exitPerimeter=0;strokeColor=default;align=center;verticalAlign=middle;fontFamily=Helvetica;fontSize=11;fontColor=default;labelBackgroundColor=default;endArrow=none;endFill=0;" edge="1" parent="1" source="51">
                    <mxGeometry relative="1" as="geometry">
                        <mxPoint x="450" y="200" as="targetPoint"/>
                        <Array as="points">
                            <mxPoint x="155" y="230"/>
                            <mxPoint x="451" y="230"/>
                        </Array>
                    </mxGeometry>
                </mxCell>
                <mxCell id="58" style="edgeStyle=orthogonalEdgeStyle;shape=connector;curved=0;rounded=0;html=1;exitX=0;exitY=0.25;exitDx=0;exitDy=0;exitPerimeter=0;entryX=1;entryY=0.5;entryDx=0;entryDy=0;strokeColor=default;align=center;verticalAlign=middle;fontFamily=Helvetica;fontSize=11;fontColor=default;labelBackgroundColor=default;endArrow=none;endFill=0;" edge="1" parent="1" source="51" target="56">
                    <mxGeometry relative="1" as="geometry"/>
                </mxCell>
                <mxCell id="51" value="" style="verticalLabelPosition=bottom;shadow=0;dashed=0;align=center;html=1;verticalAlign=top;shape=mxgraph.electrical.logic_gates.logic_gate;operation=and;fontFamily=Helvetica;fontSize=11;fontColor=default;labelBackgroundColor=default;rotation=90;" vertex="1" parent="1">
                    <mxGeometry x="120" y="370" width="100" height="60" as="geometry"/>
                </mxCell>
                <mxCell id="52" style="edgeStyle=orthogonalEdgeStyle;shape=connector;curved=0;rounded=0;html=1;exitX=1;exitY=0.5;exitDx=0;exitDy=0;entryX=0;entryY=0.75;entryDx=0;entryDy=0;entryPerimeter=0;strokeColor=default;align=center;verticalAlign=middle;fontFamily=Helvetica;fontSize=11;fontColor=default;labelBackgroundColor=default;endArrow=none;endFill=0;" edge="1" parent="1" source="43" target="50">
                    <mxGeometry relative="1" as="geometry"/>
                </mxCell>
                <mxCell id="59" style="edgeStyle=orthogonalEdgeStyle;shape=connector;curved=0;rounded=0;html=1;exitDx=0;exitDy=0;strokeColor=default;align=center;verticalAlign=middle;fontFamily=Helvetica;fontSize=11;fontColor=default;labelBackgroundColor=default;endArrow=none;endFill=0;" edge="1" parent="1" source="63">
                    <mxGeometry relative="1" as="geometry">
                        <mxPoint x="490" y="275" as="targetPoint"/>
                    </mxGeometry>
                </mxCell>
                <mxCell id="56" value="" style="verticalLabelPosition=bottom;shadow=0;dashed=0;align=center;html=1;verticalAlign=top;shape=mxgraph.electrical.logic_gates.buffer2;rotation=-180;" vertex="1" parent="1">
                    <mxGeometry x="330" y="245" width="100" height="60" as="geometry"/>
                </mxCell>
                <mxCell id="57" value="" style="ellipse;whiteSpace=wrap;html=1;fontFamily=Helvetica;fontSize=11;fontColor=default;labelBackgroundColor=default;" vertex="1" parent="1">
                    <mxGeometry x="341" y="269.75" width="10" height="10" as="geometry"/>
                </mxCell>
                <mxCell id="62" value="" style="edgeStyle=orthogonalEdgeStyle;shape=connector;curved=0;rounded=0;html=1;exitX=0;exitY=0.5;exitDx=0;exitDy=0;entryDx=0;entryDy=0;strokeColor=default;align=center;verticalAlign=middle;fontFamily=Helvetica;fontSize=11;fontColor=default;labelBackgroundColor=default;endArrow=none;endFill=0;" edge="1" parent="1" source="43" target="61">
                    <mxGeometry relative="1" as="geometry">
                        <mxPoint x="414" y="195" as="sourcePoint"/>
                        <mxPoint x="491" y="195" as="targetPoint"/>
                    </mxGeometry>
                </mxCell>
                <mxCell id="61" value="" style="shape=waypoint;sketch=0;size=6;pointerEvents=1;points=[];fillColor=none;resizable=0;rotatable=0;perimeter=centerPerimeter;snapToPoint=1;fontFamily=Helvetica;fontSize=12;fontColor=default;labelBackgroundColor=default;strokeWidth=6;" vertex="1" parent="1">
                    <mxGeometry x="440" y="185" width="20" height="20" as="geometry"/>
                </mxCell>
                <mxCell id="64" value="" style="edgeStyle=orthogonalEdgeStyle;shape=connector;curved=0;rounded=0;html=1;exitX=0;exitY=0.5;exitDx=0;exitDy=0;strokeColor=default;align=center;verticalAlign=middle;fontFamily=Helvetica;fontSize=11;fontColor=default;labelBackgroundColor=default;endArrow=none;endFill=0;" edge="1" parent="1" source="56" target="63">
                    <mxGeometry relative="1" as="geometry">
                        <mxPoint x="490" y="275" as="targetPoint"/>
                        <mxPoint x="430" y="275" as="sourcePoint"/>
                    </mxGeometry>
                </mxCell>
                <mxCell id="63" value="" style="shape=waypoint;sketch=0;size=6;pointerEvents=1;points=[];fillColor=none;resizable=0;rotatable=0;perimeter=centerPerimeter;snapToPoint=1;fontFamily=Helvetica;fontSize=12;fontColor=default;labelBackgroundColor=default;strokeWidth=6;" vertex="1" parent="1">
                    <mxGeometry x="450" y="264.75" width="20" height="20" as="geometry"/>
                </mxCell>
            </root>
        </mxGraphModel>
    </diagram>
</mxfile>